# xmcd
#
# Track frame offsets:
# 150
# 12816
# 22827
# 32946
# 44550
# 57235
# 67389
# 81117
# 89521
# 146794
# 157322
# 163142
# 171805
# 187136
# 196277
# 215142
# 234195
# 239718
# 254662
# 264954
#
# Disc length: 3708 seconds
#
#
# Revision: 0
# Processed by: cddbd v1.5.2PL0 Copyright (c) Steve Scherf et al.
# Submitted via: FreeRIP 2.96 
#
DISCID=310e7a14
DTITLE=James Brown - The Collection
DYEAR=1900
DGENRE=Soul
TTITLE0=Please Please Please
TTITLE1=Chonnie - On - Chon
TTITLE2=Hold My Baby's Hand
TTITLE3=I Feel That Old Feeling Comin' On
TTITLE4=I Don't Know
TTITLE5=No, No, No, No
TTITLE6=Why Do You Do Me
TTITLE7=Try Me
TTITLE8=It's A Man's Man's World
TTITLE9=I Got You
TTITLE10=Papa's Got A Brand New Bag
TTITLE11=Cold Sweat
TTITLE12=I Can't Stand Myself
TTITLE13=I Got The Feelin'
TTITLE14=Give It Up Or Turn It Loose
TTITLE15=Sex Machine
TTITLE16=Super Bad
TTITLE17=Hot Pants
TTITLE18=Get On The Good Foot
TTITLE19=Get Up Off a That Thang
EXTD=
EXTT0=
EXTT1=
EXTT2=
EXTT3=
EXTT4=
EXTT5=
EXTT6=
EXTT7=
EXTT8=
EXTT9=
EXTT10=
EXTT11=
EXTT12=
EXTT13=
EXTT14=
EXTT15=
EXTT16=
EXTT17=
EXTT18=
EXTT19=
PLAYORDER=
